<svg xmlns="http://www.w3.org/2000/svg" xmlns:xlink="http://www.w3.org/1999/xlink" aria-hidden="true" role="img" class="iconify iconify--logos" width="35.93" height="32" preserveAspectRatio="xMidYMid meet" viewBox="0 0 256 228"><path fill="#00D8FF" d="M210.483 73.824a171.49 171.49 0 0 0-8.24-2.597c.465-1.9.893-3.777 1.273-5.621c6.238-30.281 2.16-54.676-11.769-62.708c-13.355-7.7-35.196.329-57.254 19.526a171.23 171.23 0 0 0-6.375 5.848a155.866 155.866 0 0 0-4.241-3.917C100.759 3.829 77.587-4.822 63.673 3.233C50.33 10.957 46.379 33.89 51.995 62.588a170.974 170.974 0 0 0 1.892 8.48c-3.28.932-6.445 1.924-9.474 2.98C17.309 83.498 0 98.307 0 113.668c0 15.865 18.582 31.778 46.812 41.427a145.52 145.52 0 0 0 6.921 2.165a167.467 167.467 0 0 0-2.01 9.138c-5.354 28.2-1.173 50.591 12.134 58.266c13.744 7.926 36.812-.22 59.273-19.855a145.567 145.567 0 0 0 5.342-4.923a168.064 168.064 0 0 0 6.92 6.314c21.758 18.722 43.246 26.282 56.54 18.586c13.731-7.949 18.194-32.003 12.4-61.268a145.016 145.016 0 0 0-1.535-6.842c1.62-.48 3.21-.974 4.76-1.488c29.348-9.723 48.443-25.443 48.443-41.52c0-15.417-17.868-30.326-45.517-39.844Zm-6.365 70.984c-1.4.463-2.836.91-4.3 1.345c-3.24-10.257-7.612-21.163-12.963-32.432c5.106-11 9.31-21.767 12.459-31.957c2.619.758 5.16 1.557 7.61 2.4c23.69 8.156 38.14 20.213 38.14 29.504c0 9.896-15.606 22.743-40.946 31.14Zm-10.514 20.834c2.562 12.94 2.927 24.64 1.23 33.787c-1.524 8.219-4.59 13.698-8.382 15.893c-8.067 4.67-25.32-1.4-43.927-17.412a156.726 156.726 0 0 1-6.437-5.87c7.214-7.889 14.423-17.06 21.459-27.246c12.376-1.098 24.068-2.894 34.671-5.345a134.17 134.17 0 0 1 1.386 6.193ZM87.276 214.515c-7.882 2.783-14.16 2.863-17.955.675c-8.075-4.657-11.432-22.636-6.853-46.752a156.923 156.923 0 0 1 1.869-8.499c10.486 2.32 22.093 3.988 34.498 4.994c7.084 9.967 14.501 19.128 21.976 27.15a134.668 134.668 0 0 1-4.877 4.492c-9.933 8.682-19.886 14.842-28.658 17.94ZM50.35 144.747c-12.483-4.267-22.792-9.812-29.858-15.863c-6.35-5.437-9.555-10.836-9.555-15.216c0-9.322 13.897-21.212 35.392-27.923c1.867-.562 3.786-.993 5.746-1.308c-2.887 12.324-5.318 26.854-6.86 42.457c-1.56 15.849-1.538 31.04-.09 43.996c-2.917-1.18-5.729-2.495-8.418-3.934Zm-2.775-69.713c1.52-15.793 4.46-30.97 8.588-44.366c13.94 4.414 29.58 13.52 44.268 26.01c12.99 11.068 23.49 24.04 30.41 36.87c-10.18 3.37-20.75 8.32-30.58 14.54c-10.05 6.36-18.93 13.63-25.97 20.98c-13.32-5.34-26.24-13.1-36.47-22.66c-10.22-9.55-16.76-20.13-19.25-29.37Zm85.06 19.07c2.03-12.02 4.47-23.1 7.2-32.88c2.71 9.7 5.11 20.71 7.09 32.71c-2.3.32-4.61.69-6.89 1.13c-2.43.47-4.81 1-7.14 1.6c-.09-.52-.18-1.04-.26-1.56Zm21.53 3.26c4.48-2.39 8.69-4.87 12.52-7.38c2.63 9.24 4.33 18.87 5.02 28.6c-3.68.58-7.49 1.05-11.38 1.4c-2.23.22-4.45.39-6.66.51c-.17-7.76-.84-15.7-1.98-23.73c.82.2 1.65.39 2.48.6Zm-33.64-1.1c-4.13-1.87-8.15-3.5-12-4.85c-3.66-1.29-7.22-2.36-10.64-3.2c1.95-12.39 4.63-24.06 7.92-34.54c4.39 13.84 10.14 29.05 16.87 43.1c-.72-.17-1.44-.35-2.15-.51Zm33.23 42.09c1.88-5.13 3.52-10.5 4.9-16.02c1.33-5.33 2.39-10.79 3.16-16.29c3.01-.14 6-.37 8.95-.69c3.27-.35 6.49-.82 9.63-1.41c-.26 7.17-1.03 14.59-2.31 22.09c-1.27 7.44-2.94 14.63-4.95 21.44c-6.68-.65-13.67-1.81-20.7-3.45c-3.43-.79-6.79-1.69-10.04-2.69c.79-1.03 1.55-2.07 2.28-3.13c2.67-3.83 4.91-7.86 6.79-11.95h.49Zm-38.18 22.02c-2.95 1.26-5.75 2.42-8.38 3.46c-2.79 1.09-5.41 2.05-7.85 2.88c-1.06-3.47-2.04-7.06-2.93-10.74c-2.18-9.08-3.59-18.71-4.19-28.53c7.17 1.32 14.78 2.35 22.64 3.04c8.01.7 15.9 1.03 23.47.96c.52 6.93.46 13.93-.18 20.84c-7.69.69-15.84.37-24.14-.94c.85-3.75 1.45-7.55 1.79-11.35c.21-2.42.3-4.85.27-7.27c-.02-1.74-.09-3.48-.21-5.21c-.13-1.89-.32-3.76-.57-5.61c-.1-.74-.21-1.48-.33-2.21c-.83 6.11-2.07 12.13-3.7 17.95c-1.76 6.25-3.94 12.27-6.51 17.98c-.38.85-.78 1.69-1.19 2.52c-.13.27-.26.54-.4.8l-.31.6c-.1.2-.21.39-.31.58Zm-10.23 14.33c-7.14-2.39-13.53-5.27-18.97-8.54c-5.56-3.35-10.09-7.09-13.47-11.07c8.54-1.96 18.33-3.48 28.94-4.41c10.71-.94 20.99-1.23 30.48-.84c-5.24 5.05-11.07 9.52-17.34 13.24c-6.32 3.75-12.99 6.66-19.64 8.62Z"></path></svg>